<svg width="40" height="40" viewBox="0 0 40 40" fill="none" xmlns="http://www.w3.org/2000/svg">
  <!-- Logo background -->
  <rect width="40" height="40" rx="8" fill="white"/>
  
  <!-- Designer side (left) -->
  <path d="M4 8h16v24H4a4 4 0 0 1-4-4V12a4 4 0 0 1 4-4z" fill="#3B82F6"/>
  
  <!-- Coder side (right) -->
  <path d="M20 8h16a4 4 0 0 1 4 4v16a4 4 0 0 1-4 4H20V8z" fill="#10B981"/>
  
  <!-- Code brackets -->
  <path d="M26 14l4 6-4 6" stroke="white" stroke-width="2" stroke-linecap="round" stroke-linejoin="round"/>
  <path d="M14 14l-4 6 4 6" stroke="white" stroke-width="2" stroke-linecap="round" stroke-linejoin="round"/>
  <path d="M18 12l4 16" stroke="white" stroke-width="2" stroke-linecap="round" stroke-linejoin="round"/>
</svg>
